<svg width="70" height="20" viewBox="0 0 70 20" fill="none" xmlns="http://www.w3.org/2000/svg">
<path d="M66.7624 4.95219L65.1091 15.0864C65.1029 15.1236 65.1052 15.1617 65.1157 15.198C65.1261 15.2343 65.1446 15.2679 65.1698 15.2965C65.195 15.3251 65.2264 15.3479 65.2616 15.3634C65.2968 15.379 65.335 15.3868 65.3737 15.3864H67.3303C67.3993 15.3869 67.4663 15.3634 67.519 15.3199C67.5718 15.2765 67.6069 15.216 67.6179 15.1496L69.2712 5.01531C69.2774 4.9781 69.2752 4.94001 69.2647 4.90373C69.2542 4.86744 69.2357 4.83383 69.2105 4.80526C69.1853 4.77668 69.154 4.75383 69.1187 4.7383C69.0835 4.72278 69.0453 4.71496 69.0066 4.71539H67.05C66.9808 4.71405 66.9134 4.73734 66.8605 4.78092C66.8076 4.82449 66.7727 4.88537 66.7624 4.95219ZM64.6731 7.9096H62.8167C62.7477 7.90894 62.6808 7.93243 62.6281 7.97581C62.5754 8.01919 62.5404 8.07958 62.5295 8.146L62.4681 8.51909C62.4681 8.51909 61.0262 6.99375 58.4733 8.02458C57.0088 8.61478 56.3058 9.83417 56.0066 10.7275C56.0066 10.7275 55.0571 13.4425 57.2045 14.9369C57.2045 14.9369 59.1957 16.3742 61.4379 14.8484L61.3991 15.0864C61.3902 15.1423 61.4002 15.1996 61.4277 15.2494C61.4553 15.2992 61.4988 15.3388 61.5516 15.3622C61.5866 15.3783 61.625 15.3864 61.6637 15.3864H63.5214C63.5906 15.3877 63.658 15.3644 63.7109 15.3208C63.7638 15.2772 63.7987 15.2164 63.809 15.1496L64.9389 8.20952C64.9453 8.17235 64.943 8.13427 64.9324 8.09805C64.9218 8.06182 64.9031 8.02835 64.8775 8.00006C64.8524 7.97123 64.821 7.94815 64.7857 7.93245C64.7504 7.91675 64.712 7.90881 64.6731 7.9092V7.9096ZM61.9414 11.7451C61.869 12.23 61.6177 12.6724 61.2347 12.9894C60.8501 13.3075 60.3605 13.4793 59.8563 13.473C59.6585 13.4753 59.4617 13.4473 59.2728 13.3902C58.4713 13.141 58.0139 12.3956 58.1453 11.5875C58.2183 11.1028 58.4699 10.6607 58.8529 10.344C59.2372 10.0256 59.7263 9.85333 60.2305 9.85869C60.4282 9.8567 60.6251 9.88491 60.814 9.94232C61.6204 10.19 62.0758 10.9366 61.9435 11.7455H61.9414V11.7451ZM52.0283 11.9368C53.0351 11.9368 54.0088 11.5879 54.7736 10.9535C55.5369 10.3212 56.0422 9.44268 56.1978 8.47768C56.5229 6.47029 54.9039 4.7182 52.6085 4.7182H48.9109C48.8419 4.71755 48.7749 4.74111 48.7222 4.78457C48.6695 4.82803 48.6345 4.88851 48.6237 4.955L46.97 15.0892C46.961 15.1452 46.9711 15.2024 46.9986 15.2522C47.0261 15.302 47.0696 15.3416 47.1225 15.365C47.1579 15.3811 47.1958 15.3892 47.2345 15.3892H49.1924C49.2614 15.3898 49.3283 15.3663 49.381 15.3228C49.4338 15.2793 49.4687 15.2189 49.4796 15.1524L49.965 12.1765C49.9752 12.1096 50.0101 12.0486 50.063 12.0049C50.1159 11.9613 50.1834 11.9379 50.2527 11.9393L52.0283 11.9368ZM53.666 8.38642C53.5452 9.12859 52.9526 9.67496 51.819 9.67496H50.3697L50.8098 6.97606H52.2331C53.4051 6.97807 53.7867 7.64747 53.666 8.38843V8.38642Z" fill="#0070E0"/>
<path d="M44.7393 8.08184L42.5 11.7424L41.3635 8.10877C41.3457 8.05079 41.3091 8.00001 41.2591 7.96411C41.2092 7.92822 41.1486 7.90914 41.0866 7.90976H39.0657C39.0134 7.90907 38.9627 7.92684 38.9227 7.95979C38.8828 7.99274 38.8565 8.03866 38.8485 8.08907C38.8436 8.1225 38.8472 8.15659 38.8588 8.18838L40.8954 14.309L39.0533 17.1933C39.0377 17.217 39.0272 17.2436 39.0225 17.2715C39.0177 17.2993 39.0189 17.3278 39.0258 17.3552C39.0328 17.3826 39.0454 17.4083 39.0628 17.4308C39.0803 17.4533 39.1023 17.4721 39.1275 17.486C39.1612 17.5049 39.1995 17.5146 39.2384 17.5141H41.415C41.4771 17.5143 41.5382 17.4989 41.5924 17.4693C41.6467 17.4397 41.6921 17.397 41.7245 17.3453L47.4129 8.2322C47.4335 8.20047 47.4448 8.16384 47.4456 8.12628C47.4464 8.08871 47.4367 8.05166 47.4174 8.01912C47.3982 7.98647 47.3704 7.95944 47.3368 7.94084C47.3033 7.92225 47.2652 7.91276 47.2266 7.91338H45.0508C44.9884 7.91282 44.9269 7.92804 44.8723 7.95756C44.8177 7.98709 44.7719 8.0299 44.7393 8.08184ZM37.9201 7.90976H36.062C35.9929 7.90912 35.9258 7.93271 35.873 7.97625C35.8203 8.01978 35.7852 8.08036 35.7744 8.14697L35.7142 8.51966C35.7142 8.51966 34.2711 6.99432 31.7182 8.02515C30.2541 8.61534 29.5507 9.83473 29.2527 10.7281C29.2527 10.7281 28.3025 13.4431 30.4494 14.9374C30.4494 14.9374 32.441 16.3747 34.6832 14.849L34.6444 15.087C34.6353 15.1429 34.6453 15.2002 34.6729 15.2501C34.7004 15.2999 34.744 15.3395 34.7969 15.3628C34.8319 15.3789 34.8703 15.3869 34.909 15.3869H36.7667C36.8356 15.3874 36.9025 15.3638 36.9552 15.3204C37.0079 15.2769 37.0429 15.2165 37.0539 15.1501L38.1843 8.21009C38.1935 8.1541 38.1835 8.09671 38.156 8.04679C38.1284 7.99687 38.0848 7.95719 38.0318 7.93388C37.9966 7.9181 37.9584 7.90987 37.9197 7.90976H37.9201ZM35.188 11.746C35.1149 12.2303 34.8635 12.6721 34.4808 12.9887C34.0964 13.3068 33.6073 13.479 33.1032 13.4736C32.9058 13.4757 32.7092 13.4478 32.5206 13.3908C31.7195 13.1415 31.2625 12.3961 31.3939 11.5876C31.4671 11.1019 31.7196 10.659 32.1039 10.3421C32.4897 10.0238 32.9805 9.85233 33.4857 9.85926C33.6835 9.85725 33.8809 9.88539 34.0696 9.94288C34.8678 10.1905 35.3223 10.9367 35.1905 11.746H35.1884H35.188ZM25.2753 11.9374C26.2803 11.9369 27.2524 11.5879 28.0181 10.9528C28.7807 10.3205 29.2854 9.44236 29.4406 8.47785C29.7662 6.47086 28.1467 4.71876 25.8522 4.71876H22.1542C22.0852 4.71809 22.0182 4.74157 21.9654 4.78494C21.9127 4.82832 21.8776 4.88871 21.8665 4.95516L20.2182 15.0866C20.209 15.1426 20.2189 15.2 20.2465 15.2499C20.274 15.2998 20.3177 15.3395 20.3707 15.3628C20.4057 15.3785 20.444 15.3869 20.4827 15.3869H22.4393C22.5084 15.3876 22.5755 15.364 22.6283 15.3204C22.6811 15.2769 22.7161 15.2163 22.727 15.1497L23.2116 12.1738C23.2219 12.107 23.2567 12.0461 23.3097 12.0025C23.3626 11.959 23.43 11.9357 23.4992 11.937H25.2753V11.9374ZM26.9129 8.38658C26.7922 9.12875 26.2 9.67512 25.0664 9.67512H23.6171L24.0563 6.97622H25.4797C26.6521 6.97823 27.0332 7.64803 26.9129 8.38859V8.38658Z" fill="#003087"/>
<path d="M12.6249 5.23914C12.669 3.00138 10.7771 1.28467 8.1756 1.28467H2.7946C2.66921 1.28461 2.54791 1.32824 2.45256 1.4077C2.35722 1.48716 2.29409 1.59722 2.27455 1.71807L0.118523 14.862C0.108876 14.9216 0.112576 14.9824 0.129365 15.0405C0.146155 15.0985 0.175636 15.1523 0.21578 15.1982C0.255924 15.244 0.305775 15.2808 0.361903 15.3061C0.418031 15.3313 0.479101 15.3444 0.540909 15.3444H3.7288L3.23059 18.3879C3.22094 18.4475 3.22464 18.5083 3.24143 18.5664C3.25822 18.6244 3.2877 18.6782 3.32784 18.7241C3.36799 18.7699 3.41784 18.8067 3.47397 18.832C3.53009 18.8572 3.59116 18.8703 3.65297 18.8703H6.24993C6.3752 18.8703 6.48688 18.8265 6.58248 18.7473C6.67726 18.6677 6.69292 18.5579 6.7127 18.4369L7.47506 14.0611C7.49442 13.9405 7.55747 13.7837 7.65267 13.7041C7.74786 13.6245 7.8311 13.5811 7.95678 13.5811H9.54578C12.0937 13.5811 14.2551 11.8141 14.6503 9.35684C14.9301 7.61279 14.1636 6.02553 12.6249 5.23874V5.23914Z" fill="#001C64"/>
<path d="M4.41898 10.4971L3.62489 15.4092L3.12627 18.4904C3.11668 18.55 3.12044 18.6109 3.13729 18.6689C3.15413 18.7269 3.18366 18.7807 3.22384 18.8265C3.26402 18.8723 3.3139 18.9091 3.37005 18.9343C3.42619 18.9595 3.48727 18.9725 3.54907 18.9725H6.29767C6.42295 18.9724 6.54409 18.9287 6.63928 18.8493C6.73447 18.7698 6.79746 18.6598 6.8169 18.5391L7.54134 14.0608C7.56087 13.94 7.62394 13.83 7.7192 13.7505C7.81446 13.6711 7.93566 13.6274 8.06098 13.6273H9.67883C12.2267 13.6273 14.3881 11.8141 14.7837 9.35687C15.0639 7.61282 14.164 6.02556 12.6252 5.23877C12.6211 5.42451 12.6046 5.60985 12.5754 5.79359C12.1802 8.25005 10.018 10.0637 7.47088 10.0637H4.93862C4.81326 10.0638 4.69206 10.1076 4.5968 10.1871C4.50155 10.2666 4.4385 10.3766 4.41898 10.4975" fill="#0070E0"/>
<path d="M3.62506 15.4091H0.427287C0.365491 15.409 0.304433 15.396 0.248321 15.3707C0.192209 15.3455 0.142379 15.3086 0.102266 15.2628C0.0621538 15.2169 0.0327134 15.1631 0.0159751 15.1051C-0.00076322 15.047 -0.00440118 14.9861 0.00531205 14.9266L2.16134 1.5877C2.18087 1.46692 2.24394 1.35691 2.3392 1.27746C2.43446 1.19801 2.55565 1.15434 2.68098 1.1543H8.17654C10.778 1.1543 12.6699 3.00127 12.6258 5.23863C11.9784 4.90735 11.2177 4.71799 10.3845 4.71799H5.80293C5.67754 4.71793 5.55624 4.76156 5.4609 4.84102C5.36555 4.92048 5.30242 5.03054 5.28288 5.15139L4.41997 10.4969L3.62465 15.4091H3.62506Z" fill="#003087"/>
</svg>
